<svg version="1.1" xmlns="http://www.w3.org/2000/svg" width="32" height="32" viewBox="0 0 32 32">
<path fill="#bf0002" d="M27.698 9.238c0.94 1.828 1.473 3.9 1.473 6.097 0 0.634-0.045 1.257-0.129 1.867-2.898-1.701-6.024-2.809-9.221-3.313l-1.931-4.651h9.809zM13.639 13.671c0.73-0.064 1.463-0.096 2.196-0.096s1.465 0.033 2.195 0.096l-1.229-3.834c-0.141-0.437-0.553-0.657-0.965-0.658-0.413 0-0.825 0.221-0.965 0.658l-1.23 3.834h-0.001zM3.973 9.238h9.809l-1.931 4.651c-3.197 0.504-6.323 1.612-9.221 3.313-0.084-0.61-0.129-1.233-0.129-1.867 0-2.197 0.531-4.269 1.473-6.097v0zM28.25 20.213c-2.339-2.462-5.043-4.121-7.873-4.982l3.739 9.008c0.341 0.822 0.778 0.911 1.3 0.372 1.213-1.254 2.185-2.746 2.834-4.398v0zM3.42 20.213c0.649 1.653 1.621 3.144 2.834 4.398 0.521 0.538 0.959 0.45 1.3-0.372l3.739-9.008c-2.831 0.859-5.534 2.52-7.873 4.982v0zM22.306 26.998l-3.926-12.237c-0.845-0.143-1.694-0.216-2.545-0.222-0.851 0.005-1.701 0.079-2.545 0.222l-3.926 12.237c1.916 1.065 4.123 1.673 6.471 1.673s4.555-0.607 6.471-1.673v0zM15.835 2c4.256 0 8.046 1.994 10.488 5.098-3.409 0.811-6.927 1.231-10.488 1.231s-7.079-0.419-10.488-1.231c2.442-3.104 6.232-5.098 10.488-5.098z"></path>
</svg>
