<svg width="320.000000" height="280.000000" viewBox="0 0 320 280" fill="none" xmlns="http://www.w3.org/2000/svg" xmlns:xlink="http://www.w3.org/1999/xlink">
	<desc>
			Created with Pixso.
	</desc>
	<defs>
		<linearGradient id="paint_linear_1_13083_0" x1="160.000000" y1="204.000000" x2="160.000000" y2="250.525955" gradientUnits="userSpaceOnUse">
			<stop stop-color="#949494" stop-opacity="0.200000"/>
			<stop offset="1.000000" stop-color="#949494" stop-opacity="0.000000"/>
		</linearGradient>
	</defs>
	<mask id="mask1_13082" mask-type="alpha" maskUnits="userSpaceOnUse" x="0.000000" y="0.000000" width="320.000000" height="280.000000">
		<rect id="蒙版" width="320.000000" height="280.000000" fill="#D8D8D8" fill-opacity="1.000000"/>
		<rect id="蒙版" x="0.500000" y="0.500000" width="319.000000" height="279.000000" stroke="#979797" stroke-opacity="0" stroke-width="1.000000"/>
	</mask>
	<g mask="url(#mask1_13082)">
		<path id="形状结合" d="M82.5637 204C16.7949 217.145 -29 246.52 -29 280.649L349 280.649C349 246.52 303.205 217.145 237.437 204C235.692 207.917 231.765 210.648 227.2 210.648L92.8 210.648C88.2351 210.648 84.3081 207.917 82.5637 204Z" clip-rule="evenodd" fill="url(#paint_linear_1_13083_0)" fill-opacity="1.000000" fill-rule="evenodd"/>
	</g>
	<g mask="url(#mask1_13082)">
		<g opacity="0.400000">
			<path id="形状结合备份 2" d="M238.41 123.892L81.6099 123.892L81.6099 199.492C81.6099 205.677 86.6243 210.692 92.8098 210.692L227.21 210.692C233.396 210.692 238.41 205.677 238.41 199.492L238.41 123.892ZM185.21 147.692L134.81 147.692C131.717 147.692 129.21 150.199 129.21 153.292C129.21 156.385 131.717 158.892 134.81 158.892L185.21 158.892C188.303 158.892 190.81 156.385 190.81 153.292C190.81 150.199 188.303 147.692 185.21 147.692Z" clip-rule="evenodd" fill="#949494" fill-opacity="1.000000" fill-rule="evenodd"/>
		</g>
	</g>
	<g mask="url(#mask1_13082)">
		<g opacity="0.500000">
			<path id="形状结合备份 3" d="M101.21 79.092L101.21 79.092L101.21 101.492L101.21 123.892L218.81 123.892L218.81 101.492L218.81 101.492L218.81 79.092L218.81 79.092L238.41 123.892L81.6099 123.892L101.21 79.092Z" clip-rule="evenodd" fill="#949494" fill-opacity="1.000000" fill-rule="evenodd"/>
		</g>
	</g>
	<g mask="url(#mask1_13082)">
		<g opacity="0.600000">
			<rect id="矩形备份 2" x="101.209961" y="79.092285" width="117.599998" height="44.799999" fill="#949494" fill-opacity="1.000000"/>
		</g>
	</g>
	<g mask="url(#mask1_13082)">
		<g opacity="0.500000">
			<path id="路径 8备份" d="M141.41 53.84L150.21 49.68L118.01 30.09L121.36 61.06L130.58 57.2L137.3 65.09L137.3 55.39L123.04 36.7L141.41 53.84Z" fill="#949494" fill-opacity="1.000000" fill-rule="evenodd"/>
		</g>
	</g>
	<g mask="url(#mask1_13082)">
		<g opacity="0.500000">
			<path id="路径 9备份" d="M137.1 69.36L137.08 69.34C137.05 69.05 137.25 68.79 137.55 68.76C137.84 68.73 138.1 68.93 138.13 69.23L138.12 69.25L137.62 69.31L164.2 97.36C162.45 98.04 160.51 98.43 158.38 98.43C141.01 98.43 137.7 70.16 137.61 69.31L137.1 69.36ZM167.76 95.4C166.68 96.19 165.49 96.85 164.2 97.36L195.6 130.5C195.49 130.6 195.43 130.74 195.43 130.89C195.43 131.19 195.67 131.42 195.97 131.42L195.99 131.4L195.98 130.89C207.36 130.74 224.93 106.21 188.79 102.28C179.4 101.26 172.54 98.67 167.76 95.4ZM167.76 95.4C154.13 86.07 157.47 71.22 167.51 71.42C178.24 71.63 177.32 88.38 167.76 95.4Z" fill="#D8D8D8" fill-opacity="0" fill-rule="evenodd"/>
			<path id="路径 9备份" d="M137.61 69.29C137.61 69.29 140.74 98.43 158.38 98.43C176.02 98.43 181.08 71.68 167.51 71.42C153.94 71.15 152.62 98.34 188.79 102.28C224.95 106.21 207.34 130.77 195.96 130.89" stroke="#949494" stroke-opacity="1.000000" stroke-width="1.062340" stroke-linejoin="round" stroke-linecap="round" stroke-dasharray="4.24936 4.24936"/>
		</g>
	</g>
	<g mask="url(#mask1_13082)">
		<g opacity="0.300000">
			<path id="路径-14备份" d="M263.56 176.16C262.39 178.17 261.51 179.39 260.94 179.81C259.29 181.01 257.77 181.34 256.73 181.4C254.34 181.52 259.23 180.69 260.87 178.65C261.97 177.29 263.25 175.25 264.7 172.53L263.38 172.6L262.01 174.52C261.52 173.96 260.91 173.7 260.19 173.74C259.1 173.8 256.31 174.42 255.39 177.56C254.78 179.65 253.4 181.53 251.24 183.21C254.56 184.69 257.7 184.52 260.66 182.72C263.62 180.91 264.58 178.72 263.56 176.16Z" fill="#949494" fill-opacity="1.000000" fill-rule="evenodd"/>
		</g>
	</g>
	<g mask="url(#mask1_13082)">
		<g opacity="0.300000">
			<path id="路径-14备份" d="M70.75 101.63C68.76 105.14 67.27 107.27 66.29 108.01C63.5 110.11 60.91 110.68 59.14 110.78C55.08 110.99 63.39 109.54 66.18 105.98C68.04 103.6 70.21 100.03 72.68 95.28L70.42 95.4L68.1 98.75C67.27 97.77 66.23 97.32 65 97.38C63.15 97.48 58.41 98.57 56.86 104.05C55.82 107.71 53.48 111 49.82 113.93C55.46 116.53 60.8 116.25 65.82 113.1C70.85 109.94 72.49 106.12 70.75 101.63Z" fill="#949494" fill-opacity="1.000000" fill-rule="evenodd"/>
		</g>
	</g>
	<g mask="url(#mask1_13082)">
		<g opacity="0.300000">
			<path id="路径" d="M281.54 142.79C281.93 142.77 282.25 143.07 282.27 143.45C282.74 153.32 277.51 160.9 266.71 166.14C266.36 166.31 265.94 166.16 265.78 165.81C265.61 165.47 265.75 165.05 266.1 164.88C276.43 159.87 281.31 152.78 280.87 143.52C280.85 143.13 281.15 142.81 281.54 142.79Z" fill="#949494" fill-opacity="1.000000" fill-rule="evenodd"/>
		</g>
	</g>
</svg>
