<!-- Generated by IcoMoon.io -->
<svg version="1.1" xmlns="http://www.w3.org/2000/svg" width="40" height="40" viewBox="0 0 40 40">
<path fill="none" stroke-linejoin="miter" stroke-linecap="round" stroke-miterlimit="4" stroke-width="1.5" stroke="currentColor" d="M5.687 24.913c-1.071-1.779-1.687-3.862-1.687-6.090 0-6.529 5.293-11.823 11.823-11.823 5.688 0 10.436 4.019 11.566 9.37 0.607-0.164 1.244-0.26 1.905-0.26 4.015 0 7.269 3.253 7.269 7.267 0 1.709-0.59 3.279-1.576 4.519"></path>
<path fill="none" stroke-linejoin="miter" stroke-linecap="round" stroke-miterlimit="4" stroke-width="1.5" stroke="currentColor" d="M10.994 23.754h3.564"></path>
<path fill="none" stroke-linejoin="miter" stroke-linecap="round" stroke-miterlimit="4" stroke-width="1.5" stroke="currentColor" d="M18.967 23.774h10.509"></path>
<path fill="none" stroke-linejoin="miter" stroke-linecap="round" stroke-miterlimit="4" stroke-width="1.5" stroke="currentColor" d="M28.417 33h-16.454c-0.535 0-0.969-0.434-0.969-0.968v-3.141c0-0.535 0.435-0.968 0.969-0.968h16.454c0.535 0 0.968 0.434 0.968 0.968v3.141c0 0.535-0.434 0.968-0.968 0.968z"></path>
</svg>
