<!-- Generated by IcoMoon.io -->
<svg version="1.1" xmlns="http://www.w3.org/2000/svg" width="40" height="40" viewBox="0 0 40 40">
<path opacity="0.8" fill="currentColor" d="M19.583 3.417c-2.216 0-4.372 0.435-6.375 1.27-0.382 0.159-0.563 0.598-0.404 0.981s0.598 0.563 0.981 0.404c1.82-0.759 3.781-1.154 5.798-1.154 2.399 0 4.717 0.56 6.809 1.621 0.369 0.187 0.821 0.040 1.008-0.33s0.040-0.821-0.33-1.008c-2.301-1.166-4.851-1.783-7.487-1.783zM34.98 12.461c-0.178-0.374-0.626-0.533-1-0.355s-0.533 0.626-0.355 1c0.955 2.006 1.458 4.205 1.458 6.477 0 2.386-0.554 4.69-1.603 6.773-0.186 0.37-0.037 0.821 0.333 1.007s0.821 0.037 1.007-0.333c1.154-2.291 1.763-4.827 1.763-7.448 0-2.497-0.553-4.916-1.603-7.122zM12.684 33.84c0.185-0.371 0.635-0.521 1.006-0.336 2.071 1.034 4.359 1.579 6.727 1.579 2.126 0 4.188-0.44 6.089-1.28 0.379-0.167 0.822 0.004 0.989 0.383s-0.004 0.822-0.383 0.989c-2.091 0.924-4.36 1.407-6.696 1.407-2.602 0-5.119-0.6-7.397-1.737-0.371-0.185-0.521-0.635-0.336-1.006zM30.933 27.544c1.872 0 3.389 1.517 3.389 3.389s-1.517 3.389-3.389 3.389c-1.872 0-3.389-1.517-3.389-3.389s1.517-3.389 3.389-3.389zM30.933 29.044c-1.043 0-1.889 0.846-1.889 1.889s0.846 1.889 1.889 1.889c1.043 0 1.889-0.846 1.889-1.889s-0.846-1.889-1.889-1.889zM6.387 11.875c-0.365-0.196-0.82-0.058-1.015 0.307-1.277 2.385-1.955 5.053-1.955 7.818 0 2.356 0.492 4.644 1.432 6.75 0.169 0.378 0.612 0.548 0.991 0.379s0.548-0.612 0.379-0.991c-0.854-1.915-1.301-3.995-1.301-6.139 0-2.516 0.616-4.941 1.777-7.11 0.196-0.365 0.058-0.82-0.307-1.015zM30.933 4.925c1.872 0 3.389 1.517 3.389 3.389s-1.517 3.389-3.389 3.389c-1.872 0-3.389-1.517-3.389-3.389s1.517-3.389 3.389-3.389zM30.933 6.425c-1.043 0-1.889 0.846-1.889 1.889s0.846 1.889 1.889 1.889c1.043 0 1.889-0.846 1.889-1.889s-0.846-1.889-1.889-1.889zM9.067 4.925c1.872 0 3.389 1.517 3.389 3.389s-1.517 3.389-3.389 3.389c-1.872 0-3.389-1.517-3.389-3.389s1.517-3.389 3.389-3.389zM9.067 6.425c-1.043 0-1.889 0.846-1.889 1.889s0.846 1.889 1.889 1.889c1.043 0 1.889-0.846 1.889-1.889s-0.846-1.889-1.889-1.889zM9.067 27.544c1.872 0 3.389 1.517 3.389 3.389s-1.517 3.389-3.389 3.389c-1.872 0-3.389-1.517-3.389-3.389s1.517-3.389 3.389-3.389zM9.067 29.044c-1.043 0-1.889 0.846-1.889 1.889s0.846 1.889 1.889 1.889c1.043 0 1.889-0.846 1.889-1.889s-0.846-1.889-1.889-1.889z"></path>
<path opacity="0.8" fill="currentColor" d="M26.942 11.813c0.243-0.206 0.607-0.197 0.84 0.030 0.247 0.241 0.252 0.637 0.011 0.884l-3.229 3.314c0.921 1.060 1.478 2.445 1.478 3.959 0 1.464-0.521 2.807-1.387 3.853l3.237 3.322c0.241 0.247 0.236 0.643-0.011 0.884-0.233 0.227-0.597 0.235-0.84 0.030l-0.044-0.041-3.234-3.319c-1.032 0.822-2.339 1.314-3.762 1.314-1.458 0-2.796-0.517-3.84-1.377l-3.295 3.382-0.044 0.041c-0.243 0.206-0.607 0.197-0.84-0.030-0.247-0.241-0.252-0.637-0.011-0.884l3.312-3.401c-0.828-1.034-1.324-2.346-1.324-3.774 0-1.478 0.531-2.833 1.413-3.883l-3.303-3.391c-0.241-0.247-0.236-0.643 0.011-0.884 0.233-0.227 0.597-0.235 0.84-0.030l0.044 0.041 3.306 3.393c1.027-0.807 2.323-1.289 3.731-1.289 1.372 0 2.638 0.458 3.652 1.228l3.246-3.332zM20 15.208c-2.646 0-4.792 2.145-4.792 4.792s2.145 4.792 4.792 4.792c2.646 0 4.792-2.145 4.792-4.792s-2.145-4.792-4.792-4.792z"></path>
</svg>
