<!-- Generated by IcoMoon.io -->
<svg version="1.1" xmlns="http://www.w3.org/2000/svg" width="40" height="40" viewBox="0 0 40 40">
<path opacity="0.8" fill="currentColor" d="M35.417 5.083c1.304 0 2.366 1.032 2.415 2.324l0.002 0.093v18.888c0 0.039-0.003 0.077-0.009 0.114 0.003 0.015 0.005 0.031 0.006 0.048l0.003 0.062c0 0.394-0.303 0.716-0.688 0.747l-0.062 0.002h-3.075c-0.183 0-0.359-0.067-0.496-0.187l-0.049-0.047-3.591-3.797c-0.285-0.301-0.271-0.776 0.029-1.060 0.284-0.269 0.723-0.272 1.011-0.018l0.049 0.047 3.369 3.562 2.002-0.001 0.001-18.36c0-0.484-0.376-0.881-0.851-0.914l-0.065-0.002h-30.694l5.287 4.836c0.306 0.28 0.327 0.754 0.047 1.060-0.264 0.289-0.702 0.324-1.007 0.091l-0.052-0.044-5.331-4.876v17.366l3.164 3.345h7.336c0.394 0 0.716 0.303 0.748 0.688l0.002 0.062c0 0.394-0.303 0.716-0.688 0.747l-0.062 0.003h-7.659c-0.183 0-0.359-0.067-0.496-0.187l-0.049-0.048-2.297-2.428v5.302c0 0.484 0.376 0.881 0.851 0.914l0.065 0.002 24.953-0-12.154-12.306c-0.291-0.295-0.288-0.77 0.007-1.061 0.278-0.275 0.717-0.288 1.011-0.040l0.050 0.046 13.195 13.36 3.771 0c0.484 0 0.881-0.376 0.914-0.851l0.002-0.065v-2.433c0-0.414 0.336-0.75 0.75-0.75 0.394 0 0.716 0.303 0.748 0.688l0.002 0.062v2.433c0 1.304-1.032 2.366-2.324 2.415l-0.093 0.002h-30.833c-1.304 0-2.366-1.032-2.415-2.324l-0.002-0.093v-25c0-1.304 1.032-2.366 2.324-2.415l0.093-0.002h30.833zM27.526 9.974l0.053 0.043 3.75 3.303c0.311 0.274 0.341 0.748 0.067 1.059-0.259 0.294-0.696 0.337-1.005 0.11l-0.053-0.043-3.75-3.303c-0.311-0.274-0.341-0.748-0.067-1.059 0.259-0.294 0.696-0.337 1.005-0.11z"></path>
<path opacity="0.8" fill="currentColor" d="M16.667 16.875c-1.266 0-2.292 1.026-2.292 2.292s1.026 2.292 2.292 2.292c1.266 0 2.292-1.026 2.292-2.292s-1.026-2.292-2.292-2.292zM16.667 18.125c0.575 0 1.042 0.466 1.042 1.042s-0.466 1.042-1.042 1.042c-0.575 0-1.042-0.466-1.042-1.042s0.466-1.042 1.042-1.042zM10.833 11.042c-1.266 0-2.292 1.026-2.292 2.292s1.026 2.292 2.292 2.292c1.266 0 2.292-1.026 2.292-2.292s-1.026-2.292-2.292-2.292zM10.833 12.292c0.575 0 1.042 0.466 1.042 1.042s-0.466 1.042-1.042 1.042c-0.575 0-1.042-0.466-1.042-1.042s0.466-1.042 1.042-1.042zM25.417 7.292c-1.266 0-2.292 1.026-2.292 2.292s1.026 2.292 2.292 2.292c1.266 0 2.292-1.026 2.292-2.292s-1.026-2.292-2.292-2.292zM25.417 8.542c0.575 0 1.042 0.466 1.042 1.042s-0.466 1.042-1.042 1.042c-0.575 0-1.042-0.466-1.042-1.042s0.466-1.042 1.042-1.042zM32.5 12.708c-1.266 0-2.292 1.026-2.292 2.292s1.026 2.292 2.292 2.292c1.266 0 2.292-1.026 2.292-2.292s-1.026-2.292-2.292-2.292zM32.5 13.958c0.575 0 1.042 0.466 1.042 1.042s-0.466 1.042-1.042 1.042c-0.575 0-1.042-0.466-1.042-1.042s0.466-1.042 1.042-1.042zM16.25 26.875c-1.266 0-2.292 1.026-2.292 2.292s1.026 2.292 2.292 2.292c1.266 0 2.292-1.026 2.292-2.292s-1.026-2.292-2.292-2.292zM16.25 28.125c0.575 0 1.042 0.466 1.042 1.042s-0.466 1.042-1.042 1.042c-0.575 0-1.042-0.466-1.042-1.042s0.466-1.042 1.042-1.042zM29.167 18.958c-1.266 0-2.292 1.026-2.292 2.292s1.026 2.292 2.292 2.292c1.266 0 2.292-1.026 2.292-2.292s-1.026-2.292-2.292-2.292zM29.167 20.208c0.575 0 1.042 0.466 1.042 1.042s-0.466 1.042-1.042 1.042c-0.575 0-1.042-0.466-1.042-1.042s0.466-1.042 1.042-1.042z"></path>
</svg>
