<!-- Generated by IcoMoon.io -->
<svg version="1.1" xmlns="http://www.w3.org/2000/svg" width="40" height="40" viewBox="0 0 40 40">
<path opacity="0.8" fill="currentColor" d="M9.167 16.667c0.46 0 0.833-0.373 0.833-0.833s-0.373-0.833-0.833-0.833c-0.46 0-0.833 0.373-0.833 0.833s0.373 0.833 0.833 0.833zM9.167 24.167c0.46 0 0.833-0.373 0.833-0.833s-0.373-0.833-0.833-0.833c-0.46 0-0.833 0.373-0.833 0.833s0.373 0.833 0.833 0.833zM9.167 31.667c0.46 0 0.833-0.373 0.833-0.833s-0.373-0.833-0.833-0.833c-0.46 0-0.833 0.373-0.833 0.833s0.373 0.833 0.833 0.833zM11.667 16.667c0.46 0 0.833-0.373 0.833-0.833s-0.373-0.833-0.833-0.833c-0.46 0-0.833 0.373-0.833 0.833s0.373 0.833 0.833 0.833zM11.667 24.167c0.46 0 0.833-0.373 0.833-0.833s-0.373-0.833-0.833-0.833c-0.46 0-0.833 0.373-0.833 0.833s0.373 0.833 0.833 0.833zM11.667 31.667c0.46 0 0.833-0.373 0.833-0.833s-0.373-0.833-0.833-0.833c-0.46 0-0.833 0.373-0.833 0.833s0.373 0.833 0.833 0.833zM14.167 16.667c0.46 0 0.833-0.373 0.833-0.833s-0.373-0.833-0.833-0.833c-0.46 0-0.833 0.373-0.833 0.833s0.373 0.833 0.833 0.833zM14.167 24.167c0.46 0 0.833-0.373 0.833-0.833s-0.373-0.833-0.833-0.833c-0.46 0-0.833 0.373-0.833 0.833s0.373 0.833 0.833 0.833zM14.167 31.667c0.46 0 0.833-0.373 0.833-0.833s-0.373-0.833-0.833-0.833c-0.46 0-0.833 0.373-0.833 0.833s0.373 0.833 0.833 0.833zM31.458 15.208c0.345 0 0.625 0.28 0.625 0.625 0 0.325-0.248 0.592-0.565 0.622l-0.060 0.003h-7.5c-0.345 0-0.625-0.28-0.625-0.625 0-0.325 0.248-0.592 0.565-0.622l0.060-0.003h7.5zM31.458 22.708c0.345 0 0.625 0.28 0.625 0.625 0 0.325-0.248 0.592-0.565 0.622l-0.060 0.003h-7.5c-0.345 0-0.625-0.28-0.625-0.625 0-0.325 0.248-0.592 0.565-0.622l0.060-0.003h7.5zM31.458 30.208c0.345 0 0.625 0.28 0.625 0.625 0 0.325-0.248 0.592-0.565 0.622l-0.060 0.003h-7.5c-0.345 0-0.625-0.28-0.625-0.625 0-0.325 0.248-0.592 0.565-0.622l0.060-0.003h7.5z"></path>
<path opacity="0.8" fill="currentColor" d="M31.361 4.719c1.007 0 1.909 0.625 2.263 1.568l2.092 5.578c0.009 0.025 0.018 0.050 0.025 0.076 0.012 0.043 0.019 0.086 0.023 0.128l0.002 0.067v20.833c0 1.304-1.032 2.366-2.324 2.415l-0.093 0.002h-3.473c-0.414 0-0.75-0.336-0.75-0.75 0-0.394 0.303-0.716 0.688-0.747l0.062-0.002h3.473c0.484 0 0.881-0.376 0.914-0.851l0.002-0.065-0.001-4.928h-28.5l0.001 4.928c0 0.484 0.376 0.881 0.851 0.914l0.065 0.002h19.808c0.414 0 0.75 0.336 0.75 0.75 0 0.394-0.303 0.716-0.688 0.748l-0.062 0.002h-19.808c-1.304 0-2.366-1.032-2.415-2.324l-0.002-0.093-0.001-5.531c-0.009-0.047-0.014-0.096-0.014-0.147s0.005-0.097 0.014-0.144l0.001-7.209c-0.009-0.047-0.014-0.096-0.014-0.147s0.005-0.097 0.014-0.144l0.002-7.512-0-0.026c0.001-0.019 0.002-0.039 0.004-0.058l-0.004 0.084c0-0.046 0.004-0.090 0.012-0.134s0.020-0.086 0.036-0.129l-0.024 0.075c0.004-0.017 0.009-0.034 0.015-0.050l0.009-0.025 2.094-5.585c0.354-0.943 1.255-1.568 2.263-1.568zM34.265 20.541h-28.5v6h28.5v-6zM34.265 12.885h-28.5l-0 6.156h28.5l0-6.156zM31.361 6.219h-22.69c-0.382 0-0.724 0.237-0.858 0.595l-1.715 4.571h27.835l-1.714-4.571c-0.126-0.335-0.434-0.565-0.787-0.592l-0.071-0.003z"></path>
</svg>
