<!-- Generated by IcoMoon.io -->
<svg version="1.1" xmlns="http://www.w3.org/2000/svg" width="40" height="40" viewBox="0 0 40 40">
<path opacity="0.8" fill="currentColor" d="M18.725 3.352l-13.96 7.215c-0.333 0.172-0.623 0.402-0.848 0.678-0.943 1.154-0.521 2.725 0.852 3.432l13.918 7.163c0.904 0.465 2.047 0.467 2.953 0.003l13.996-7.167c0.336-0.172 0.628-0.402 0.855-0.679 0.946-1.152 0.528-2.724-0.845-3.433l-13.954-7.212c-0.909-0.47-2.059-0.47-2.967 0zM21.004 4.685l13.954 7.212c0.559 0.289 0.687 0.768 0.374 1.149-0.093 0.114-0.222 0.215-0.379 0.296l-13.996 7.167c-0.475 0.243-1.108 0.243-1.583-0.001l-13.918-7.163c-0.56-0.288-0.689-0.768-0.378-1.149 0.092-0.113 0.22-0.214 0.375-0.295l13.96-7.215c0.477-0.246 1.113-0.246 1.59-0zM36.526 27.336c0.379-0.168 0.822 0.003 0.989 0.382 0.159 0.359 0.014 0.775-0.324 0.961l-0.058 0.029-1.55 0.686-13.973 7.155c-0.868 0.444-1.954 0.462-2.839 0.053l-0.114-0.056-15.254-7.859c-0.367-0.191-0.51-0.644-0.319-1.012 0.181-0.348 0.597-0.494 0.953-0.346l0.059 0.027 1.329 0.693 13.918 7.163c0.445 0.229 1.029 0.244 1.492 0.044l0.091-0.043 14.034-7.185 1.565-0.693z"></path>
<path opacity="0.8" fill="currentColor" d="M36.547 19.237l-2.204 1.119c-0.307 0.157-0.429 0.534-0.271 0.841s0.534 0.429 0.841 0.271l0.636-0.326 1.562-0.791c0.308-0.156 0.431-0.532 0.275-0.84s-0.532-0.431-0.84-0.275zM32.147 21.481l-2.197 1.125c-0.307 0.157-0.429 0.534-0.271 0.841s0.534 0.429 0.841 0.271l2.197-1.125c0.307-0.157 0.429-0.534 0.271-0.841s-0.534-0.429-0.841-0.271zM27.752 23.731l-2.197 1.125c-0.307 0.157-0.429 0.534-0.271 0.841s0.534 0.429 0.841 0.271l2.197-1.125c0.307-0.157 0.429-0.534 0.271-0.841s-0.534-0.429-0.841-0.271zM23.358 25.981l-2.197 1.125c-0.307 0.157-0.429 0.534-0.271 0.841s0.534 0.429 0.841 0.271l2.197-1.125c0.307-0.157 0.429-0.534 0.271-0.841s-0.534-0.429-0.841-0.271zM19.327 27.215l-0.039-0.019-2.142-1.103c-0.307-0.158-0.684-0.037-0.842 0.27s-0.037 0.684 0.27 0.842l2.212 1.137c0.311 0.149 0.685 0.018 0.834-0.293s0.018-0.685-0.293-0.834zM14.951 24.963l-2.195-1.13c-0.307-0.158-0.684-0.037-0.842 0.27s-0.037 0.684 0.27 0.842l2.195 1.13c0.307 0.158 0.684 0.037 0.842-0.27s0.037-0.684-0.27-0.842zM10.561 22.704l-2.195-1.13c-0.307-0.158-0.684-0.037-0.842 0.27s-0.037 0.684 0.27 0.842l2.195 1.13c0.307 0.158 0.684 0.037 0.842-0.27s0.037-0.684-0.27-0.842zM6.172 20.445l-0.803-0.413-1.299-0.775c-0.297-0.177-0.68-0.079-0.857 0.217s-0.079 0.68 0.217 0.857l1.333 0.793 0.837 0.432c0.307 0.158 0.684 0.037 0.842-0.27s0.037-0.684-0.27-0.842z"></path>
</svg>
