<svg width="139" height="32" viewBox="0 0 139 32" fill="none" xmlns="http://www.w3.org/2000/svg">
<g clip-path="url(#clip0_2879_2413)">
<path d="M18.1982 10.4053C18.3032 10.4053 18.3887 10.4866 18.3887 10.5869V11.5576C19.4014 10.837 20.6529 10.4053 22.0127 10.4053C25.3716 10.4053 28.0947 13.0077 28.0947 16.2178C28.0945 19.4272 25.3715 22.0293 22.0127 22.0293C20.6528 22.0292 19.4015 21.5969 18.3887 20.876V25.5635C18.3886 25.6638 18.3031 25.7451 18.1982 25.7451H15.8506C15.7459 25.7451 15.6612 25.6638 15.6611 25.5635V10.5869C15.6611 10.4866 15.7458 10.4053 15.8506 10.4053H18.1982ZM35.6494 10.4395C36.7439 10.4395 37.7733 10.7008 38.7373 11.2236C39.7007 11.7474 40.4531 12.4576 40.9932 13.3545C41.2532 13.786 41.451 14.2339 41.5859 14.6982C41.5859 14.6982 41.8039 15.4503 41.8037 16.2598C41.8035 16.5956 41.7641 16.9262 41.7637 16.9297C41.7456 17.0705 41.5773 17.0674 41.5742 17.0674H32.7012C32.6746 17.068 32.6529 17.0886 32.6426 17.1055C32.6332 17.1209 32.6286 17.1429 32.6367 17.1729C32.678 17.3277 32.732 17.476 32.7959 17.6182C32.9414 17.9417 33.1452 18.2316 33.4131 18.4844C34.0151 19.0532 34.7783 19.3368 35.7021 19.3369C36.6262 19.3369 37.3953 19.0496 38.0088 18.4746C38.0317 18.4531 38.0519 18.43 38.0723 18.4072C38.1232 18.3508 38.1827 18.3938 38.2295 18.4141C38.2735 18.4329 38.3157 18.4501 38.5605 18.5547C39.0058 18.7447 39.4512 18.9349 39.8955 19.126C40.1711 19.2445 40.4495 19.3575 40.7217 19.4824C40.7589 19.4995 40.7536 19.5348 40.7432 19.5498C40.2277 20.2883 39.5741 20.8875 38.7646 21.3301C37.8263 21.843 36.7905 22.1006 35.6602 22.1006C33.9963 22.1006 32.5753 21.5347 31.3984 20.4033C30.2218 19.272 29.6339 17.8971 29.6338 16.2803C29.6338 14.5474 30.2988 13.1023 31.6289 11.9473C32.7948 10.942 34.1352 10.4395 35.6494 10.4395ZM98.999 10.4121C99.1121 10.4121 99.2041 10.5002 99.2041 10.6084V12.0801C99.8263 11.5086 100.643 11.0864 101.594 10.9053C101.953 10.8368 102.339 10.8207 102.349 10.8203C102.405 10.8168 102.412 10.8355 102.412 10.8701V13.2373C102.412 13.2903 102.374 13.3155 102.329 13.3193C102.328 13.3195 102.284 13.3238 102.24 13.332C101.247 13.5212 100.43 13.9279 99.8428 14.6016C99.4297 15.0201 99.2574 15.4334 99.2041 16.0117V21.8721C99.2041 21.9803 99.1121 22.0684 98.999 22.0684H96.6455C96.5326 22.0684 96.4404 21.9803 96.4404 21.8721V10.6084C96.4404 10.5002 96.5326 10.4121 96.6455 10.4121H98.999ZM65.1689 7C65.2822 7 65.374 7.08805 65.374 7.19629V9.60938C65.374 9.71747 65.2822 9.80566 65.1689 9.80566H58.4014V12.5068H64.8223C64.9354 12.5069 65.0271 12.5942 65.0273 12.7021V15.1152C65.0273 15.2234 64.9356 15.3115 64.8223 15.3115H58.4014V19.2559H65.1689C65.2822 19.2559 65.374 19.3439 65.374 19.4521V21.8652C65.374 21.9735 65.2822 22.0615 65.1689 22.0615H55.5225C55.4094 22.0613 55.3184 21.9733 55.3184 21.8652V7.19629C55.3184 7.08818 55.4094 7.00021 55.5225 7H65.1689ZM88.6523 10.3867C89.7469 10.3867 90.7765 10.6481 91.7402 11.1709C92.7036 11.6945 93.456 12.4048 93.9961 13.3018C94.2562 13.7333 94.4537 14.1821 94.5889 14.6465C94.5945 14.666 94.8069 15.4083 94.8066 16.207C94.8066 16.5379 94.7682 16.8639 94.7666 16.877C94.7487 17.0178 94.5804 17.0156 94.5771 17.0156H85.7041C85.6775 17.0162 85.6557 17.0358 85.6455 17.0527C85.6361 17.0682 85.6315 17.0901 85.6396 17.1201C85.681 17.2751 85.7348 17.4233 85.7988 17.5654C85.9443 17.8889 86.1482 18.179 86.416 18.4316C87.018 19.0005 87.7812 19.2851 88.7051 19.2852C89.6292 19.2852 90.3984 18.9978 91.0117 18.4229C91.0347 18.4012 91.0546 18.3774 91.0752 18.3545C91.1259 18.2984 91.1855 18.341 91.2324 18.3613C91.2764 18.3802 91.3187 18.3975 91.5635 18.502C92.0087 18.6919 92.4539 18.8831 92.8984 19.0742C93.1739 19.1927 93.4522 19.3058 93.7246 19.4307C93.7619 19.4478 93.7565 19.4832 93.7461 19.498C93.2306 20.2365 92.5769 20.8358 91.7676 21.2783C90.8291 21.7913 89.7936 22.0478 88.6631 22.0479C86.9992 22.0479 85.5782 21.4818 84.4014 20.3506C83.2247 19.2191 82.6367 17.8445 82.6367 16.2275C82.6367 14.4946 83.3018 13.0497 84.6318 11.8945C85.7977 10.8894 87.1381 10.3868 88.6523 10.3867ZM48.6035 10.4463C51.4044 10.4463 53.6757 12.6162 53.6758 15.293V21.8496C53.6755 21.9575 53.5838 22.0447 53.4707 22.0449H50.9492C50.8361 22.0449 50.7444 21.9577 50.7441 21.8496V15.293C50.7441 14.1634 49.7852 13.248 48.6035 13.248C47.4218 13.2482 46.464 14.1635 46.4639 15.293V21.8496C46.4636 21.9576 46.372 22.0449 46.2588 22.0449H43.7373C43.6242 22.0449 43.5325 21.9577 43.5322 21.8496V15.293C43.5323 12.6163 45.8027 10.4465 48.6035 10.4463ZM69.209 10.417C69.3219 10.4172 69.4129 10.5045 69.4131 10.6123V17.1689C69.4131 18.2985 70.372 19.2139 71.5537 19.2139C72.7355 19.2138 73.6933 18.2984 73.6934 17.1689V10.6123C73.6936 10.5045 73.7853 10.4171 73.8984 10.417H76.4199C76.533 10.417 76.6248 10.5044 76.625 10.6123V17.1689C76.625 19.8457 74.3547 22.0156 71.5537 22.0156C68.7528 22.0156 66.4824 19.8458 66.4824 17.1689V10.6123C66.4826 10.5044 66.5743 10.417 66.6875 10.417H69.209ZM81.0244 7C81.0653 7 81.0986 7.03219 81.0986 7.07129V21.9238C81.0985 21.9628 81.0652 21.9941 81.0244 21.9941H78.248C78.2073 21.9941 78.1739 21.9628 78.1738 21.9238V7.07129C78.1738 7.03219 78.2072 7 78.248 7H81.0244ZM6.31543 7.16699C6.71856 6.94465 7.21495 6.9445 7.61816 7.16699L13.2812 10.292C13.6841 10.5144 13.9326 10.9255 13.9326 11.3701V17.6191C13.9326 18.064 13.684 18.4748 13.2812 18.6973L7.61816 21.8223C7.21489 22.0444 6.71859 22.0443 6.31543 21.8223L0.652344 18.6973C0.249443 18.4748 0 18.0641 0 17.6191V11.3701C0 10.9254 0.249147 10.5144 0.652344 10.292L6.31543 7.16699ZM22.0127 13.085C20.2027 13.0851 18.7354 14.4878 18.7354 16.2178C18.7356 17.9476 20.2029 19.3495 22.0127 19.3496C23.8228 19.3496 25.2908 17.9476 25.291 16.2178C25.291 14.4877 23.8229 13.085 22.0127 13.085ZM7.24121 10.6338C7.07163 10.5402 6.86228 10.5402 6.69238 10.6338L3.60449 12.3369C3.43458 12.431 3.3302 12.6038 3.33008 12.791V16.1982C3.33008 16.3855 3.43449 16.5585 3.60449 16.6523L6.69238 18.3564C6.86221 18.45 7.07174 18.4501 7.24121 18.3564L10.3281 16.6523C10.4979 16.5586 10.6025 16.3857 10.6025 16.1982V12.791C10.6024 12.6037 10.4978 12.4309 10.3281 12.3369L7.24121 10.6338ZM35.7129 13.2021C34.7962 13.2022 34.0333 13.4886 33.4238 14.0605C33.2498 14.2235 33.1053 14.402 32.9844 14.5928C32.938 14.6658 32.8946 14.7405 32.8555 14.8174C32.8175 14.8921 32.8926 14.8945 32.8975 14.8945H38.5498C38.5526 14.8945 38.6169 14.8929 38.5898 14.8096C38.5801 14.7793 38.5428 14.7157 38.5273 14.6875C38.3918 14.4413 38.2392 14.2514 38.0244 14.0498C37.4216 13.4846 36.6512 13.2021 35.7129 13.2021ZM88.7158 13.1494C87.7992 13.1495 87.0362 13.4359 86.4268 14.0078C86.2529 14.1707 86.1084 14.3492 85.9873 14.54C85.9408 14.6133 85.8978 14.6886 85.8584 14.7656C85.8208 14.8397 85.8944 14.8427 85.9004 14.8428H91.5527C91.5556 14.8427 91.62 14.8402 91.5928 14.7568C91.5828 14.7264 91.5458 14.6629 91.5303 14.6348C91.3947 14.3887 91.2422 14.1996 91.0273 13.998C90.4246 13.4326 89.6544 13.1494 88.7158 13.1494Z" fill="white"/>
<path fill-rule="evenodd" clip-rule="evenodd" d="M135.462 12.4767C134.812 13.2648 133.14 13.5845 131.811 13.1788C130.544 12.7915 130.136 11.9029 130.822 11.2026C131.484 10.5283 132.964 10.2371 134.197 10.5419C135.486 10.8601 136.086 11.7203 135.462 12.4767ZM129.601 10.8674C128.908 11.5452 127.419 11.8367 126.344 11.5082C125.746 11.3255 125.416 10.9446 125.398 10.6266C125.385 10.3816 124.999 10.1571 124.574 10.0357C124.146 9.91315 123.651 9.92462 123.155 9.98242C123.029 9.9973 122.764 10.0521 122.594 10.1064C122.138 10.2517 121.743 10.4158 121.414 10.6775C121.005 11.0032 120.869 11.5815 120.878 11.7964C120.891 12.0976 121.182 12.3553 121.624 12.5144C122.058 12.6706 122.599 12.6991 123.137 12.6176C123.794 12.4486 124.514 12.4415 125.105 12.6404C126.186 13.0047 126.459 13.9367 125.641 14.7357C124.789 15.5682 123.15 15.8807 122.06 15.4223C121.456 15.1683 121.244 14.7039 121.212 14.2747C121.186 13.9398 120.873 13.6715 120.446 13.5041C120.016 13.3356 119.515 13.3416 118.953 13.3876C118.879 13.3937 118.546 13.4579 118.34 13.5099C118.059 13.5807 117.481 13.736 116.996 14.193C116.612 14.5543 116.441 14.8951 116.343 15.1004C116.287 15.2181 116.219 15.485 116.216 15.5764C116.203 15.9535 116.427 16.295 116.863 16.5141C117.293 16.73 117.861 16.7877 118.448 16.7055C119.179 16.5164 119.945 16.5361 120.538 16.8129C121.628 17.3219 121.755 18.5316 120.732 19.5313C119.661 20.5776 117.836 20.9134 116.757 20.2684C116.165 19.9151 115.993 19.3822 116.077 18.7614L116.076 18.7579C116.076 18.7546 116.074 18.6094 116.054 18.5316C116.054 18.5316 116.038 18.4085 115.956 18.2509C115.847 18.0395 115.665 17.864 115.419 17.7279C114.998 17.4955 114.442 17.4355 113.862 17.5186C113.136 17.7067 112.425 17.6799 111.958 17.4011C111.162 16.9254 111.4 15.9158 112.422 15.1534C112.949 14.7598 113.591 14.5014 114.197 14.4005L114.2 14.3986C114.777 14.2869 115.372 14.0366 115.837 13.6796C116.294 13.3288 116.532 12.9472 116.553 12.6168L116.555 12.6154C116.557 12.608 116.562 12.4376 116.53 12.2571C116.51 11.9719 116.525 11.69 116.795 11.3823C116.969 11.1861 117.344 10.9954 117.755 10.9214C118.037 10.8707 118.399 10.8822 118.604 10.8717C118.781 10.8626 119.091 10.8281 119.2 10.7967C119.615 10.678 119.862 10.5453 120.169 10.3097C120.482 10.069 120.677 9.81639 120.711 9.58617C120.718 9.53744 120.735 9.31204 120.73 9.28498C120.625 8.74494 121.411 8.15233 122.486 7.96122C123.031 7.8646 123.544 7.88982 123.933 8.00811C123.946 8.01109 123.96 8.01349 123.974 8.01661C124.367 8.11366 124.617 8.29457 124.712 8.516L124.716 8.51713C124.717 8.52266 124.718 8.5279 124.718 8.53342C124.734 8.57337 124.745 8.61417 124.751 8.65653C124.844 8.89383 125.114 9.09741 125.553 9.21301C125.984 9.32649 126.497 9.33457 126.993 9.25509C127.592 9.10223 128.268 9.07744 128.848 9.22052C129.906 9.48176 130.27 10.2139 129.601 10.8674ZM127.09 22.8809C126.031 24.1722 123.914 24.5453 122.498 23.6988C121.164 22.9015 121.046 21.3591 122.118 20.2616C123.141 19.2144 124.959 18.8776 126.282 19.496C127.681 20.1492 128.096 21.6552 127.09 22.8809ZM137.482 7.28644L124.768 0.261169C124.138 -0.0870562 123.362 -0.0870562 122.732 0.261169L110.018 7.28644C109.388 7.63467 109 8.27828 109 8.97458V23.0253C109 23.7219 109.388 24.3652 110.018 24.7136L122.732 31.739C123.362 32.0871 124.138 32.0871 124.768 31.739L137.482 24.7136C138.112 24.3652 138.5 23.7219 138.5 23.0253V8.97458C138.5 8.27828 138.112 7.63467 137.482 7.28644Z" fill="white"/>
</g>
<defs>
<clipPath id="clip0_2879_2413">
<rect width="139" height="32" fill="white"/>
</clipPath>
</defs>
</svg>
